<svg xmlns="http://www.w3.org/2000/svg" width="75.679" height="75.679" viewBox="0 0 75.679 75.679">
  <g id="halfday_graphics" transform="translate(0)">
    <circle id="Ellipse_5" data-name="Ellipse 5" cx="36" cy="36" r="36" transform="translate(1.884 1.671)" fill="#edf1f9"/>
    <g id="halfday_graphics-2" data-name="halfday_graphics" transform="translate(0 0)">
      <g id="Group_79" data-name="Group 79" transform="translate(0 0)">
        <path id="Path_50" data-name="Path 50" d="M4854.7,457.326v56.89a28.445,28.445,0,1,0,0-56.89Z" transform="translate(-4816.862 -447.931)" fill="#00c1b4"/>
        <path id="Path_51" data-name="Path 51" d="M4691.248,407.35a37.839,37.839,0,1,0,37.839,37.84A37.882,37.882,0,0,0,4691.248,407.35Zm0,72.867a35.028,35.028,0,1,1,35.027-35.028A35.068,35.068,0,0,1,4691.248,480.217Z" transform="translate(-4653.408 -407.35)" fill="#4a4d4d"/>
        <g id="Group_78" data-name="Group 78" transform="translate(6.469 6.469)">
          <path id="Path_54" data-name="Path 54" d="M4921.893,467.865h0a1.205,1.205,0,0,0,1.646-.441l1.359-2.355a1.2,1.2,0,0,0-.441-1.647h0a1.206,1.206,0,0,0-1.646.441l-1.359,2.355A1.206,1.206,0,0,0,4921.893,467.865Z" transform="translate(-4877.402 -459.219)" fill="#4a4d4d"/>
          <path id="Path_55" data-name="Path 55" d="M4768.657,733.275h0a1.206,1.206,0,0,0,1.647-.441l1.36-2.355a1.205,1.205,0,0,0-.442-1.647h0a1.205,1.205,0,0,0-1.646.441l-1.359,2.355A1.205,1.205,0,0,0,4768.657,733.275Z" transform="translate(-4752.971 -674.737)" fill="#4a4d4d"/>
          <path id="Path_56" data-name="Path 56" d="M4709.922,524.246l2.354,1.36a1.206,1.206,0,0,0,1.647-.441h0a1.206,1.206,0,0,0-.442-1.647l-2.355-1.36a1.205,1.205,0,0,0-1.646.441h0A1.2,1.2,0,0,0,4709.922,524.246Z" transform="translate(-4705.277 -506.914)" fill="#4a4d4d"/>
          <path id="Path_57" data-name="Path 57" d="M4975.333,677.48l2.354,1.36a1.206,1.206,0,0,0,1.646-.441h0a1.206,1.206,0,0,0-.441-1.647l-2.354-1.36a1.206,1.206,0,0,0-1.647.441h0A1.206,1.206,0,0,0,4975.333,677.48Z" transform="translate(-4920.796 -631.343)" fill="#4a4d4d"/>
          <path id="Path_58" data-name="Path 58" d="M4921.451,730.479l1.359,2.355a1.206,1.206,0,0,0,1.646.441h0a1.2,1.2,0,0,0,.441-1.647l-1.359-2.355a1.205,1.205,0,0,0-1.646-.441h0A1.207,1.207,0,0,0,4921.451,730.479Z" transform="translate(-4877.402 -674.737)" fill="#4a4d4d"/>
          <path id="Path_59" data-name="Path 59" d="M4768.216,465.069l1.359,2.355a1.205,1.205,0,0,0,1.646.441h0a1.2,1.2,0,0,0,.442-1.647l-1.36-2.355a1.206,1.206,0,0,0-1.647-.441h0A1.205,1.205,0,0,0,4768.216,465.069Z" transform="translate(-4752.971 -459.219)" fill="#4a4d4d"/>
          <path id="Path_60" data-name="Path 60" d="M4709.48,678.4h0a1.205,1.205,0,0,0,1.646.441l2.355-1.36a1.206,1.206,0,0,0,.442-1.647h0a1.206,1.206,0,0,0-1.647-.441l-2.354,1.36A1.2,1.2,0,0,0,4709.48,678.4Z" transform="translate(-4705.277 -631.343)" fill="#4a4d4d"/>
          <path id="Path_61" data-name="Path 61" d="M4979.334,522.6h0a1.206,1.206,0,0,0-1.646-.441l-2.354,1.36a1.206,1.206,0,0,0-.442,1.647h0a1.206,1.206,0,0,0,1.647.441l2.354-1.36A1.206,1.206,0,0,0,4979.334,522.6Z" transform="translate(-4920.796 -506.914)" fill="#4a4d4d"/>
          <path id="Rectangle_8" data-name="Rectangle 8" d="M1.205,0h0A1.205,1.205,0,0,1,2.411,1.205v2.72A1.205,1.205,0,0,1,1.205,5.13h0A1.205,1.205,0,0,1,0,3.925V1.205A1.205,1.205,0,0,1,1.205,0Z" transform="translate(30.165 57.611)" fill="#4a4d4d"/>
          <path id="Rectangle_9" data-name="Rectangle 9" d="M1.205,0h0A1.205,1.205,0,0,1,2.411,1.205v2.72A1.205,1.205,0,0,1,1.205,5.13h0A1.205,1.205,0,0,1,0,3.925V1.205A1.205,1.205,0,0,1,1.205,0Z" transform="translate(30.165 0)" fill="#4a4d4d"/>
          <path id="Rectangle_10" data-name="Rectangle 10" d="M1.205,0H3.925A1.205,1.205,0,0,1,5.13,1.205v0A1.205,1.205,0,0,1,3.925,2.411H1.205A1.205,1.205,0,0,1,0,1.206v0A1.205,1.205,0,0,1,1.205,0Z" transform="translate(0 30.165)" fill="#4a4d4d"/>
          <path id="Rectangle_11" data-name="Rectangle 11" d="M1.205,0H3.925A1.205,1.205,0,0,1,5.13,1.205v0A1.205,1.205,0,0,1,3.925,2.411H1.206A1.206,1.206,0,0,1,0,1.205v0A1.205,1.205,0,0,1,1.205,0Z" transform="translate(57.611 30.165)" fill="#4a4d4d"/>
        </g>
        <path id="Path_62" data-name="Path 62" d="M4847.057,598.7a2.3,2.3,0,0,0-4.606,0c0,.031,0,.06,0,.091-.107,1.9,1.909,22.292,2.147,24.341h0a.153.153,0,0,0,.306,0h0c.236-2.028,2.205-22.024,2.141-24.273C4847.052,598.8,4847.057,598.749,4847.057,598.7Z" transform="translate(-4806.914 -560.856)" fill="#4a4d4d"/>
      </g>
    </g>
  </g>
</svg>
